<?xml version="1.0" encoding="UTF-8"?>
<svg xmlns="http://www.w3.org/2000/svg" xmlns:xlink="http://www.w3.org/1999/xlink" width="300px" height="300px" viewBox="0 0 150 150" version="1.1">
<g id="surface1">
<path style=" stroke:none;fill-rule:nonzero;fill:rgb(24.705882%,23.921569%,33.72549%);fill-opacity:1;" d="M 0 86.96875 C 0 87.105469 0.109375 87.214844 0.242188 87.214844 L 149.6875 87.214844 C 149.824219 87.214844 149.929688 87.105469 149.929688 86.96875 C 149.929688 86.835938 149.824219 86.726562 149.6875 86.726562 L 0.242188 86.726562 C 0.109375 86.726562 0 86.835938 0 86.96875 Z M 0 86.96875 "/>
<path style=" stroke:none;fill-rule:nonzero;fill:rgb(62.745098%,38.039216%,41.568627%);fill-opacity:1;" d="M 95.695312 35.414062 L 96.476562 45.40625 L 107.84375 40.679688 L 101.429688 30.511719 Z M 95.695312 35.414062 "/>
<path style=" stroke:none;fill-rule:nonzero;fill:rgb(62.745098%,38.039216%,41.568627%);fill-opacity:1;" d="M 103.824219 30.015625 C 103.824219 34.679688 100.03125 38.457031 95.351562 38.457031 C 90.671875 38.457031 86.882812 34.679688 86.882812 30.015625 C 86.882812 25.355469 90.671875 21.578125 95.351562 21.578125 C 100.03125 21.578125 103.824219 25.355469 103.824219 30.015625 Z M 103.824219 30.015625 "/>
<path style=" stroke:none;fill-rule:nonzero;fill:rgb(62.745098%,38.039216%,41.568627%);fill-opacity:1;" d="M 79.507812 108.710938 L 80.9375 121.53125 L 70.898438 120.144531 L 74.179688 108.304688 Z M 79.507812 108.710938 "/>
<path style=" stroke:none;fill-rule:nonzero;fill:rgb(62.745098%,38.039216%,41.568627%);fill-opacity:1;" d="M 118.644531 110.546875 L 120.078125 123.367188 L 110.039062 121.984375 L 113.316406 110.140625 Z M 118.644531 110.546875 "/>
<path style=" stroke:none;fill-rule:nonzero;fill:rgb(18.431373%,18.039216%,25.490196%);fill-opacity:1;" d="M 94.773438 71.859375 C 94.632812 71.859375 83.675781 72.40625 76.4375 72.765625 C 73.007812 72.9375 70.398438 75.894531 70.664062 79.304688 L 73.257812 112.488281 L 80.632812 112.691406 L 80.8125 85.945312 L 95.386719 86.761719 Z M 94.773438 71.859375 "/>
<path style=" stroke:none;fill-rule:nonzero;fill:rgb(18.431373%,18.039216%,25.490196%);fill-opacity:1;" d="M 126.945312 71.652344 C 126.945312 71.652344 128.789062 85.742188 127.351562 87.171875 C 125.921875 88.601562 80.9375 86.046875 80.9375 86.046875 C 80.9375 86.046875 90.804688 71.851562 92.585938 71.445312 C 94.359375 71.039062 122.640625 69.609375 122.640625 69.609375 Z M 126.945312 71.652344 "/>
<path style=" stroke:none;fill-rule:nonzero;fill:rgb(62.745098%,38.039216%,41.568627%);fill-opacity:1;" d="M 68.671875 53.914062 C 66.960938 51.53125 66.808594 48.710938 68.332031 47.625 C 69.859375 46.539062 72.484375 47.59375 74.195312 49.984375 C 74.890625 50.929688 75.351562 52.023438 75.539062 53.183594 L 82.667969 63.390625 L 78.609375 66.1875 L 71.28125 56.21875 C 70.238281 55.667969 69.34375 54.878906 68.671875 53.914062 Z M 68.671875 53.914062 "/>
<path style=" stroke:none;fill-rule:nonzero;fill:rgb(42.352941%,38.823529%,100%);fill-opacity:1;" d="M 95.28125 41.742188 L 105.734375 37.453125 L 125.40625 67.671875 C 125.40625 67.671875 111.679688 70.734375 106.964844 71.34375 C 102.25 71.960938 96.921875 69.507812 96.921875 69.507812 Z M 95.28125 41.742188 "/>
<path style=" stroke:none;fill-rule:nonzero;fill:rgb(24.705882%,23.921569%,33.72549%);fill-opacity:1;" d="M 107.988281 46.84375 L 104.195312 35.0625 L 109.117188 38.78125 C 109.117188 38.78125 123.050781 47.96875 123.050781 51.847656 C 123.050781 55.726562 127.351562 67.570312 127.351562 67.570312 C 127.351562 67.570312 132.171875 71.550781 130.53125 75.226562 C 128.890625 78.898438 132.679688 78.390625 133.09375 81.046875 C 133.5 83.699219 127.25 87.273438 127.25 87.273438 C 127.25 87.273438 125.714844 72.265625 120.796875 72.265625 C 115.878906 72.265625 107.988281 46.84375 107.988281 46.84375 Z M 107.988281 46.84375 "/>
<path style=" stroke:none;fill-rule:nonzero;fill:rgb(24.705882%,23.921569%,33.72549%);fill-opacity:1;" d="M 96.015625 41.4375 L 90.878906 43.476562 C 90.878906 43.476562 91.695312 57.769531 92.515625 58.992188 C 93.335938 60.21875 96.203125 66.75 96.203125 66.75 L 96.203125 68.882812 C 96.203125 68.882812 90.46875 70.632812 90.671875 71.652344 C 90.878906 72.671875 104.195312 75.53125 104.195312 75.53125 C 104.195312 75.53125 101.53125 67.367188 99.894531 64.710938 C 98.257812 62.054688 96.015625 41.4375 96.015625 41.4375 Z M 96.015625 41.4375 "/>
<path style=" stroke:none;fill-rule:nonzero;fill:rgb(24.705882%,23.921569%,33.72549%);fill-opacity:1;" d="M 92.722656 43.476562 C 92.722656 43.476562 86.78125 42.660156 85.757812 49.601562 C 84.730469 56.542969 85.382812 57.460938 85.382812 57.460938 L 83.703125 61.445312 L 78.171875 55.320312 L 72.84375 58.789062 C 72.84375 58.789062 82.476562 74.304688 86.367188 73.898438 C 90.265625 73.492188 96 62.261719 96 62.261719 Z M 92.722656 43.476562 "/>
<path style=" stroke:none;fill-rule:nonzero;fill:rgb(18.431373%,18.039216%,25.490196%);fill-opacity:1;" d="M 122.402344 73.90625 L 119.359375 116.773438 L 111.472656 116.46875 C 111.472656 116.46875 109.730469 75.9375 109.730469 75.328125 C 109.730469 74.714844 110.550781 71.242188 115.671875 71.039062 C 120.796875 70.835938 122.402344 73.90625 122.402344 73.90625 Z M 122.402344 73.90625 "/>
<path style=" stroke:none;fill-rule:nonzero;fill:rgb(18.431373%,18.039216%,25.490196%);fill-opacity:1;" d="M 110.960938 117.59375 C 110.960938 117.59375 115.058594 116.367188 115.671875 117.183594 C 116.289062 118 119.773438 118.40625 119.773438 118.40625 L 120.796875 128.414062 C 120.796875 128.414062 117.929688 130.453125 117.515625 130.863281 C 117.109375 131.273438 106.246094 131.679688 106.039062 129.230469 C 105.835938 126.78125 108.910156 123.71875 108.910156 123.71875 Z M 110.960938 117.59375 "/>
<path style=" stroke:none;fill-rule:nonzero;fill:rgb(18.431373%,18.039216%,25.490196%);fill-opacity:1;" d="M 80.835938 114.734375 C 80.835938 114.734375 82.066406 113.710938 82.476562 116.570312 C 82.886719 119.429688 84.320312 124.125 82.273438 124.738281 C 80.222656 125.351562 59.730469 125.554688 59.730469 123.71875 L 59.730469 121.878906 L 61.574219 120.453125 L 65.265625 119.867188 C 65.265625 119.867188 72.4375 113.304688 73.257812 113.304688 C 74.074219 113.304688 76.738281 115.960938 76.738281 115.960938 Z M 80.835938 114.734375 "/>
<path style=" stroke:none;fill-rule:nonzero;fill:rgb(18.431373%,18.039216%,25.490196%);fill-opacity:1;" d="M 103.6875 34.59375 C 103.6875 34.59375 99.585938 29.695312 97.945312 30.101562 C 96.308594 30.511719 97.332031 31.125 97.332031 31.125 L 93.234375 26.632812 C 93.234375 26.632812 89.953125 25.40625 86.882812 29.289062 C 86.882812 29.289062 85.039062 26.019531 86.882812 24.179688 C 88.726562 22.34375 89.34375 22.546875 89.75 21.527344 C 90.160156 20.507812 93.03125 19.6875 93.03125 19.6875 C 93.03125 19.6875 92.867188 18.21875 93.765625 18.953125 C 94.671875 19.6875 96.921875 19.6875 96.921875 19.6875 C 96.921875 19.6875 96.933594 18.875 97.851562 19.6875 C 98.765625 20.507812 99.789062 20.101562 99.789062 20.101562 C 99.789062 20.101562 99.789062 21.511719 100.507812 21.519531 C 101.226562 21.527344 102.453125 20.507812 102.660156 21.324219 C 102.867188 22.140625 104.300781 22.546875 104.507812 25 C 104.710938 27.449219 103.6875 34.59375 103.6875 34.59375 Z M 103.6875 34.59375 "/>
<path style=" stroke:none;fill-rule:nonzero;fill:rgb(100%,100%,100%);fill-opacity:1;" d="M 70.285156 55.265625 L 46.875 71.359375 C 46.070312 71.914062 44.960938 71.710938 44.398438 70.90625 L 37.8125 61.390625 C 37.25 60.585938 37.457031 59.480469 38.265625 58.925781 L 61.671875 42.828125 C 62.480469 42.273438 63.59375 42.476562 64.148438 43.28125 L 70.742188 52.796875 C 71.296875 53.601562 71.09375 54.710938 70.285156 55.265625 Z M 70.285156 55.265625 "/>
<path style=" stroke:none;fill-rule:nonzero;fill:rgb(90.196078%,90.196078%,90.196078%);fill-opacity:1;" d="M 64.105469 43.3125 L 70.695312 52.828125 C 71.238281 53.609375 71.039062 54.683594 70.257812 55.222656 L 58.765625 63.125 C 55.738281 62.296875 52.972656 60.445312 51.050781 57.667969 C 49.789062 55.847656 49.03125 53.835938 48.742188 51.785156 L 61.703125 42.875 C 62.488281 42.335938 63.5625 42.53125 64.105469 43.3125 Z M 64.105469 43.3125 "/>
<path style=" stroke:none;fill-rule:nonzero;fill:rgb(24.705882%,23.921569%,33.72549%);fill-opacity:1;" d="M 45.867188 71.878906 C 45.238281 71.878906 44.617188 71.578125 44.234375 71.023438 L 37.640625 61.507812 C 37.34375 61.074219 37.226562 60.546875 37.324219 60.027344 C 37.421875 59.507812 37.710938 59.054688 38.148438 58.757812 L 61.554688 42.664062 C 62.460938 42.042969 63.695312 42.269531 64.320312 43.164062 L 70.90625 52.683594 C 71.210938 53.117188 71.320312 53.640625 71.226562 54.164062 C 71.132812 54.683594 70.835938 55.132812 70.402344 55.433594 L 46.992188 71.53125 C 46.648438 71.765625 46.257812 71.878906 45.867188 71.878906 Z M 62.679688 42.71875 C 62.375 42.71875 62.0625 42.8125 61.789062 43 L 38.382812 59.09375 C 38.035156 59.328125 37.804688 59.6875 37.726562 60.101562 C 37.648438 60.515625 37.742188 60.929688 37.976562 61.273438 L 44.570312 70.792969 C 45.0625 71.503906 46.046875 71.683594 46.757812 71.195312 L 70.171875 55.097656 C 70.515625 54.859375 70.75 54.5 70.824219 54.089844 C 70.898438 53.679688 70.8125 53.257812 70.570312 52.914062 L 63.980469 43.398438 C 63.675781 42.960938 63.183594 42.71875 62.679688 42.71875 Z M 62.679688 42.71875 "/>
<path style=" stroke:none;fill-rule:nonzero;fill:rgb(42.352941%,38.823529%,100%);fill-opacity:1;" d="M 46.039062 67.125 C 45.445312 67.535156 45.296875 68.347656 45.703125 68.9375 C 46.113281 69.53125 46.929688 69.679688 47.523438 69.273438 L 49.933594 67.613281 C 50.527344 67.203125 50.675781 66.390625 50.265625 65.800781 C 49.859375 65.210938 49.039062 65.0625 48.449219 65.46875 Z M 46.039062 67.125 "/>
<path style=" stroke:none;fill-rule:nonzero;fill:rgb(42.352941%,38.823529%,100%);fill-opacity:1;" d="M 47.671875 53.851562 C 46.734375 54.492188 46.5 55.773438 47.148438 56.710938 C 47.789062 57.640625 49.078125 57.875 50.015625 57.234375 L 53.765625 54.65625 C 54.699219 54.011719 54.9375 52.726562 54.289062 51.796875 C 53.644531 50.863281 52.359375 50.628906 51.421875 51.273438 Z M 47.671875 53.851562 "/>
<path style=" stroke:none;fill-rule:nonzero;fill:rgb(100%,100%,100%);fill-opacity:1;" d="M 69.726562 56.6875 L 41.28125 56.6875 C 40.304688 56.6875 39.503906 55.890625 39.503906 54.914062 L 39.503906 43.351562 C 39.503906 42.375 40.304688 41.578125 41.28125 41.578125 L 69.726562 41.578125 C 70.707031 41.578125 71.507812 42.375 71.507812 43.351562 L 71.507812 54.914062 C 71.507812 55.890625 70.707031 56.6875 69.726562 56.6875 Z M 69.726562 56.6875 "/>
<path style=" stroke:none;fill-rule:nonzero;fill:rgb(90.196078%,90.196078%,90.196078%);fill-opacity:1;" d="M 71.453125 43.351562 L 71.453125 54.914062 C 71.453125 55.867188 70.679688 56.632812 69.726562 56.632812 L 55.765625 56.632812 C 53.742188 54.242188 52.523438 51.152344 52.523438 47.777344 C 52.523438 45.570312 53.046875 43.480469 53.976562 41.632812 L 69.726562 41.632812 C 70.679688 41.632812 71.453125 42.398438 71.453125 43.351562 Z M 71.453125 43.351562 "/>
<path style=" stroke:none;fill-rule:nonzero;fill:rgb(24.705882%,23.921569%,33.72549%);fill-opacity:1;" d="M 69.726562 56.890625 L 41.28125 56.890625 C 40.1875 56.890625 39.296875 56.003906 39.296875 54.914062 L 39.296875 43.351562 C 39.296875 42.261719 40.1875 41.375 41.28125 41.375 L 69.726562 41.375 C 70.820312 41.375 71.710938 42.261719 71.710938 43.351562 L 71.710938 54.914062 C 71.710938 56.003906 70.820312 56.890625 69.726562 56.890625 Z M 41.28125 41.78125 C 40.414062 41.78125 39.710938 42.484375 39.710938 43.351562 L 39.710938 54.914062 C 39.710938 55.78125 40.414062 56.484375 41.28125 56.484375 L 69.726562 56.484375 C 70.59375 56.484375 71.300781 55.78125 71.300781 54.914062 L 71.300781 43.351562 C 71.300781 42.484375 70.59375 41.78125 69.726562 41.78125 Z M 41.28125 41.78125 "/>
<path style=" stroke:none;fill-rule:nonzero;fill:rgb(42.352941%,38.823529%,100%);fill-opacity:1;" d="M 43.007812 52.726562 C 42.289062 52.726562 41.703125 53.3125 41.703125 54.03125 C 41.703125 54.75 42.289062 55.332031 43.007812 55.332031 L 45.9375 55.332031 C 46.65625 55.332031 47.242188 54.75 47.242188 54.03125 C 47.242188 53.3125 46.65625 52.726562 45.9375 52.726562 Z M 43.007812 52.726562 "/>
<path style=" stroke:none;fill-rule:nonzero;fill:rgb(42.352941%,38.823529%,100%);fill-opacity:1;" d="M 51.921875 42.726562 C 50.78125 42.726562 49.859375 43.648438 49.859375 44.78125 C 49.859375 45.914062 50.78125 46.835938 51.921875 46.835938 L 56.476562 46.835938 C 57.609375 46.835938 58.539062 45.914062 58.539062 44.78125 C 58.539062 43.648438 57.609375 42.726562 56.476562 42.726562 Z M 51.921875 42.726562 "/>
<path style=" stroke:none;fill-rule:nonzero;fill:rgb(100%,100%,100%);fill-opacity:1;" d="M 93.496094 96.703125 L 65.054688 96.703125 C 64.070312 96.703125 63.273438 95.910156 63.273438 94.929688 L 63.273438 83.367188 C 63.273438 82.390625 64.070312 81.59375 65.054688 81.59375 L 93.496094 81.59375 C 94.476562 81.59375 95.273438 82.390625 95.273438 83.367188 L 95.273438 94.929688 C 95.273438 95.910156 94.476562 96.703125 93.496094 96.703125 Z M 93.496094 96.703125 "/>
<path style=" stroke:none;fill-rule:nonzero;fill:rgb(90.196078%,90.196078%,90.196078%);fill-opacity:1;" d="M 95.222656 83.367188 L 95.222656 94.929688 C 95.222656 95.882812 94.453125 96.65625 93.496094 96.65625 L 79.539062 96.65625 C 77.515625 94.257812 76.296875 91.171875 76.296875 87.796875 C 76.296875 85.585938 76.820312 83.5 77.75 81.648438 L 93.496094 81.648438 C 94.453125 81.648438 95.222656 82.417969 95.222656 83.367188 Z M 95.222656 83.367188 "/>
<path style=" stroke:none;fill-rule:nonzero;fill:rgb(24.705882%,23.921569%,33.72549%);fill-opacity:1;" d="M 93.496094 96.910156 L 65.054688 96.910156 C 63.960938 96.910156 63.070312 96.023438 63.070312 94.929688 L 63.070312 83.367188 C 63.070312 82.28125 63.960938 81.390625 65.054688 81.390625 L 93.496094 81.390625 C 94.589844 81.390625 95.480469 82.28125 95.480469 83.367188 L 95.480469 94.929688 C 95.480469 96.023438 94.589844 96.910156 93.496094 96.910156 Z M 65.054688 81.800781 C 64.1875 81.800781 63.476562 82.503906 63.476562 83.367188 L 63.476562 94.929688 C 63.476562 95.796875 64.1875 96.5 65.054688 96.5 L 93.496094 96.5 C 94.363281 96.5 95.070312 95.796875 95.070312 94.929688 L 95.070312 83.367188 C 95.070312 82.503906 94.363281 81.800781 93.496094 81.800781 Z M 65.054688 81.800781 "/>
<path style=" stroke:none;fill-rule:nonzero;fill:rgb(42.352941%,38.823529%,100%);fill-opacity:1;" d="M 66.777344 92.746094 C 66.054688 92.746094 65.46875 93.328125 65.46875 94.046875 C 65.46875 94.765625 66.054688 95.351562 66.777344 95.351562 L 69.707031 95.351562 C 70.429688 95.351562 71.015625 94.765625 71.015625 94.046875 C 71.015625 93.328125 70.429688 92.746094 69.707031 92.746094 Z M 66.777344 92.746094 "/>
<path style=" stroke:none;fill-rule:nonzero;fill:rgb(42.352941%,38.823529%,100%);fill-opacity:1;" d="M 75.6875 82.742188 C 74.554688 82.742188 73.625 83.664062 73.625 84.796875 C 73.625 85.929688 74.554688 86.851562 75.6875 86.851562 L 80.246094 86.851562 C 81.382812 86.851562 82.308594 85.929688 82.308594 84.796875 C 82.308594 83.664062 81.382812 82.742188 80.246094 82.742188 Z M 75.6875 82.742188 "/>
<path style=" stroke:none;fill-rule:nonzero;fill:rgb(62.745098%,38.039216%,41.568627%);fill-opacity:1;" d="M 95.425781 86.335938 C 92.8125 87.6875 89.992188 87.445312 89.128906 85.789062 C 88.265625 84.132812 89.679688 81.691406 92.292969 80.335938 C 93.328125 79.78125 94.484375 79.480469 95.660156 79.460938 L 106.800781 73.859375 L 109.015625 78.253906 L 98.078125 84.085938 C 97.386719 85.039062 96.476562 85.808594 95.425781 86.335938 Z M 95.425781 86.335938 "/>
<path style=" stroke:none;fill-rule:nonzero;fill:rgb(24.705882%,23.921569%,33.72549%);fill-opacity:1;" d="M 108.09375 38.578125 C 108.09375 38.578125 119.566406 37.964844 122.023438 44.089844 C 124.484375 50.214844 126.53125 70.222656 126.53125 70.222656 L 101.53125 83.773438 L 97.230469 77.164062 L 114.03125 64.097656 Z M 108.09375 38.578125 "/>
</g>
</svg>
