<?xml version="1.0" encoding="UTF-8"?>
<svg xmlns="http://www.w3.org/2000/svg" xmlns:xlink="http://www.w3.org/1999/xlink" width="300px" height="300px" viewBox="0 0 150 150" version="1.1">
<g id="surface1">
<path style=" stroke:none;fill-rule:nonzero;fill:rgb(24.705882%,23.921569%,33.72549%);fill-opacity:1;" d="M 3.585938 55.867188 L 129.3125 19.308594 L 132.640625 30.714844 L 6.914062 67.273438 Z M 3.585938 55.867188 "/>
<path style=" stroke:none;fill-rule:nonzero;fill:rgb(24.705882%,23.921569%,33.72549%);fill-opacity:1;" d="M 18.605469 108.261719 L 0.0742188 44.789062 C -0.210938 43.804688 0.351562 42.78125 1.335938 42.496094 L 124.011719 6.824219 C 124.992188 6.539062 126.023438 7.101562 126.304688 8.082031 L 142.726562 64.316406 L 142.21875 64.460938 L 125.796875 8.226562 C 125.59375 7.53125 124.859375 7.128906 124.160156 7.332031 L 1.484375 43 C 0.78125 43.207031 0.378906 43.9375 0.582031 44.640625 L 19.113281 108.117188 Z M 18.605469 108.261719 "/>
<path style=" stroke:none;fill-rule:nonzero;fill:rgb(42.352941%,38.823529%,100%);fill-opacity:1;" d="M 115.570312 64.578125 C 114.804688 64.578125 114.132812 64.070312 113.921875 63.339844 L 110.8125 52.695312 C 110.546875 51.785156 111.070312 50.832031 111.984375 50.566406 L 122.648438 47.464844 C 123.5625 47.203125 124.515625 47.722656 124.78125 48.632812 L 127.890625 59.28125 C 128.15625 60.1875 127.632812 61.140625 126.71875 61.40625 L 116.054688 64.507812 C 115.898438 64.554688 115.734375 64.578125 115.570312 64.578125 Z M 115.570312 64.578125 "/>
<path style=" stroke:none;fill-rule:nonzero;fill:rgb(42.352941%,38.823529%,100%);fill-opacity:1;" d="M 18.320312 44.984375 C 18.289062 44.875 18.25 44.765625 18.203125 44.664062 C 17.585938 43.164062 15.9375 42.375 14.382812 42.828125 C 12.828125 43.28125 11.859375 44.828125 12.144531 46.421875 C 12.164062 46.535156 12.1875 46.648438 12.21875 46.757812 C 12.617188 48.109375 13.859375 49.035156 15.273438 49.039062 C 15.570312 49.039062 15.867188 48.992188 16.15625 48.910156 C 17.839844 48.421875 18.804688 46.664062 18.320312 44.984375 Z M 16.007812 48.402344 C 14.609375 48.808594 13.140625 48.007812 12.726562 46.609375 C 12.699219 46.5 12.671875 46.386719 12.65625 46.273438 C 12.449219 44.960938 13.25 43.703125 14.53125 43.335938 C 15.804688 42.960938 17.160156 43.59375 17.691406 44.8125 C 17.742188 44.914062 17.78125 45.023438 17.8125 45.132812 C 18.21875 46.53125 17.414062 47.992188 16.007812 48.402344 Z M 16.007812 48.402344 "/>
<path style=" stroke:none;fill-rule:nonzero;fill:rgb(42.352941%,38.823529%,100%);fill-opacity:1;" d="M 10.53125 47.246094 C 10.1875 46.054688 10.632812 44.78125 11.648438 44.0625 C 10.375 44 9.210938 44.773438 8.773438 45.964844 C 8.335938 47.160156 8.726562 48.5 9.734375 49.273438 C 10.75 50.042969 12.144531 50.070312 13.1875 49.335938 C 11.945312 49.273438 10.882812 48.4375 10.53125 47.246094 Z M 10.53125 47.246094 "/>
<path style=" stroke:none;fill-rule:nonzero;fill:rgb(80%,80%,80%);fill-opacity:1;" d="M 92.773438 60.332031 C 92.65625 59.921875 92.386719 59.578125 92.015625 59.367188 C 91.648438 59.160156 91.210938 59.109375 90.800781 59.222656 L 73.234375 64.125 L 71.34375 64.65625 L 83.226562 64.65625 L 85.117188 64.125 L 91.664062 62.296875 C 92.515625 62.0625 93.007812 61.179688 92.773438 60.332031 Z M 92.773438 60.332031 "/>
<path style=" stroke:none;fill-rule:nonzero;fill:rgb(80%,80%,80%);fill-opacity:1;" d="M 80.34375 56.671875 C 80.109375 55.820312 79.226562 55.328125 78.375 55.5625 L 52.019531 62.917969 C 51.257812 63.132812 50.769531 63.867188 50.863281 64.65625 L 57.6875 64.65625 L 59.578125 64.125 L 79.234375 58.640625 C 80.085938 58.398438 80.585938 57.519531 80.34375 56.671875 Z M 80.34375 56.671875 "/>
<path style=" stroke:none;fill-rule:nonzero;fill:rgb(24.705882%,23.921569%,33.72549%);fill-opacity:1;" d="M 148.195312 64.125 L 20.414062 64.125 C 19.390625 64.125 18.5625 64.953125 18.5625 65.972656 L 18.5625 141.484375 C 18.5625 142.503906 19.390625 143.328125 20.414062 143.332031 L 148.195312 143.332031 C 149.214844 143.328125 150.042969 142.503906 150.046875 141.484375 L 150.046875 65.972656 C 150.042969 64.953125 149.214844 64.125 148.195312 64.125 Z M 149.515625 141.484375 C 149.515625 142.210938 148.921875 142.804688 148.195312 142.804688 L 20.414062 142.804688 C 19.6875 142.804688 19.09375 142.210938 19.09375 141.484375 L 19.09375 65.972656 C 19.09375 65.242188 19.6875 64.652344 20.414062 64.652344 L 148.195312 64.652344 C 148.921875 64.652344 149.515625 65.242188 149.515625 65.972656 Z M 149.515625 141.484375 "/>
<path style=" stroke:none;fill-rule:nonzero;fill:rgb(42.352941%,38.823529%,100%);fill-opacity:1;" d="M 32.847656 74.421875 C 31.09375 74.421875 29.671875 73.003906 29.671875 71.253906 C 29.671875 69.503906 31.09375 68.085938 32.847656 68.085938 C 34.601562 68.085938 36.023438 69.503906 36.023438 71.253906 C 36.023438 73.003906 34.601562 74.421875 32.847656 74.421875 Z M 32.847656 68.613281 C 31.386719 68.613281 30.203125 69.796875 30.203125 71.253906 C 30.203125 72.710938 31.386719 73.894531 32.847656 73.894531 C 34.308594 73.894531 35.492188 72.710938 35.492188 71.253906 C 35.492188 69.796875 34.308594 68.617188 32.847656 68.613281 Z M 32.847656 68.613281 "/>
<path style=" stroke:none;fill-rule:nonzero;fill:rgb(42.352941%,38.823529%,100%);fill-opacity:1;" d="M 27.914062 71.253906 C 27.914062 70.015625 28.703125 68.914062 29.875 68.507812 C 28.671875 68.09375 27.335938 68.507812 26.582031 69.53125 C 25.828125 70.554688 25.828125 71.953125 26.582031 72.976562 C 27.335938 74 28.671875 74.414062 29.875 74 C 28.703125 73.59375 27.914062 72.492188 27.914062 71.253906 Z M 27.914062 71.253906 "/>
<path style=" stroke:none;fill-rule:nonzero;fill:rgb(42.352941%,38.823529%,100%);fill-opacity:1;" d="M 45.71875 108.6875 C 44.402344 108.6875 43.335938 107.625 43.335938 106.3125 L 43.335938 99.179688 C 43.335938 97.867188 44.402344 96.804688 45.71875 96.804688 C 47.03125 96.804688 48.097656 97.867188 48.097656 99.179688 L 48.097656 106.3125 C 48.09375 107.625 47.03125 108.6875 45.71875 108.6875 Z M 45.71875 108.6875 "/>
<path style=" stroke:none;fill-rule:nonzero;fill:rgb(42.352941%,38.823529%,100%);fill-opacity:1;" d="M 52.066406 108.6875 C 50.75 108.6875 49.6875 107.625 49.6875 106.3125 L 49.6875 99.179688 C 49.6875 97.867188 50.75 96.804688 52.066406 96.804688 C 53.382812 96.804688 54.445312 97.867188 54.445312 99.179688 L 54.445312 106.3125 C 54.445312 107.625 53.382812 108.6875 52.066406 108.6875 Z M 52.066406 108.6875 "/>
<path style=" stroke:none;fill-rule:nonzero;fill:rgb(42.352941%,38.823529%,100%);fill-opacity:1;" d="M 58.414062 108.6875 C 57.101562 108.6875 56.035156 107.625 56.035156 106.3125 L 56.035156 99.179688 C 56.035156 97.867188 57.101562 96.804688 58.414062 96.804688 C 59.730469 96.804688 60.796875 97.867188 60.796875 99.179688 L 60.796875 106.3125 C 60.796875 107.625 59.730469 108.6875 58.414062 108.6875 Z M 58.414062 108.6875 "/>
<path style=" stroke:none;fill-rule:nonzero;fill:rgb(42.352941%,38.823529%,100%);fill-opacity:1;" d="M 68.203125 108.6875 C 66.890625 108.6875 65.824219 107.625 65.820312 106.3125 L 65.820312 99.179688 C 65.820312 97.867188 66.890625 96.804688 68.203125 96.804688 C 69.519531 96.804688 70.585938 97.867188 70.585938 99.179688 L 70.585938 106.3125 C 70.585938 107.625 69.515625 108.6875 68.203125 108.6875 Z M 68.203125 108.6875 "/>
<path style=" stroke:none;fill-rule:nonzero;fill:rgb(42.352941%,38.823529%,100%);fill-opacity:1;" d="M 74.554688 108.6875 C 73.238281 108.6875 72.171875 107.625 72.171875 106.3125 L 72.171875 99.179688 C 72.171875 97.867188 73.238281 96.804688 74.554688 96.804688 C 75.867188 96.804688 76.933594 97.867188 76.933594 99.179688 L 76.933594 106.3125 C 76.929688 107.625 75.867188 108.6875 74.554688 108.6875 Z M 74.554688 108.6875 "/>
<path style=" stroke:none;fill-rule:nonzero;fill:rgb(42.352941%,38.823529%,100%);fill-opacity:1;" d="M 80.902344 108.6875 C 79.585938 108.6875 78.523438 107.625 78.523438 106.3125 L 78.523438 99.179688 C 78.523438 97.867188 79.585938 96.804688 80.902344 96.804688 C 82.21875 96.804688 83.28125 97.867188 83.28125 99.179688 L 83.28125 106.3125 C 83.28125 107.625 82.21875 108.6875 80.902344 108.6875 Z M 80.902344 108.6875 "/>
<path style=" stroke:none;fill-rule:nonzero;fill:rgb(42.352941%,38.823529%,100%);fill-opacity:1;" d="M 90.691406 108.6875 C 89.375 108.6875 88.3125 107.625 88.308594 106.3125 L 88.308594 99.179688 C 88.308594 97.867188 89.375 96.804688 90.691406 96.804688 C 92.007812 96.804688 93.070312 97.867188 93.070312 99.179688 L 93.070312 106.3125 C 93.070312 107.625 92.003906 108.6875 90.691406 108.6875 Z M 90.691406 108.6875 "/>
<path style=" stroke:none;fill-rule:nonzero;fill:rgb(42.352941%,38.823529%,100%);fill-opacity:1;" d="M 97.039062 108.6875 C 95.726562 108.6875 94.660156 107.625 94.65625 106.3125 L 94.65625 99.179688 C 94.65625 97.867188 95.726562 96.804688 97.039062 96.804688 C 98.355469 96.804688 99.421875 97.867188 99.421875 99.179688 L 99.421875 106.3125 C 99.421875 107.625 98.351562 108.6875 97.039062 108.6875 Z M 97.039062 108.6875 "/>
<path style=" stroke:none;fill-rule:nonzero;fill:rgb(42.352941%,38.823529%,100%);fill-opacity:1;" d="M 103.390625 108.6875 C 102.074219 108.6875 101.007812 107.625 101.007812 106.3125 L 101.007812 99.179688 C 101.007812 97.867188 102.074219 96.804688 103.390625 96.804688 C 104.703125 96.804688 105.769531 97.867188 105.769531 99.179688 L 105.769531 106.3125 C 105.765625 107.625 104.703125 108.6875 103.390625 108.6875 Z M 103.390625 108.6875 "/>
<path style=" stroke:none;fill-rule:nonzero;fill:rgb(42.352941%,38.823529%,100%);fill-opacity:1;" d="M 113.179688 108.6875 C 111.863281 108.6875 110.796875 107.625 110.796875 106.3125 L 110.796875 99.179688 C 110.796875 97.867188 111.859375 96.804688 113.179688 96.804688 C 114.492188 96.804688 115.558594 97.867188 115.558594 99.179688 L 115.558594 106.3125 C 115.554688 107.625 114.492188 108.6875 113.179688 108.6875 Z M 113.179688 108.6875 "/>
<path style=" stroke:none;fill-rule:nonzero;fill:rgb(42.352941%,38.823529%,100%);fill-opacity:1;" d="M 119.527344 108.6875 C 118.210938 108.6875 117.148438 107.625 117.148438 106.3125 L 117.148438 99.179688 C 117.148438 97.867188 118.210938 96.804688 119.527344 96.804688 C 120.84375 96.804688 121.90625 97.867188 121.90625 99.179688 L 121.90625 106.3125 C 121.90625 107.625 120.839844 108.6875 119.527344 108.6875 Z M 119.527344 108.6875 "/>
<path style=" stroke:none;fill-rule:nonzero;fill:rgb(42.352941%,38.823529%,100%);fill-opacity:1;" d="M 125.875 108.6875 C 124.5625 108.6875 123.496094 107.625 123.492188 106.3125 L 123.492188 99.179688 C 123.492188 97.867188 124.5625 96.804688 125.875 96.804688 C 127.191406 96.804688 128.257812 97.867188 128.257812 99.179688 L 128.257812 106.3125 C 128.257812 107.625 127.1875 108.6875 125.875 108.6875 Z M 125.875 108.6875 "/>
<path style=" stroke:none;fill-rule:nonzero;fill:rgb(90.196078%,90.196078%,90.196078%);fill-opacity:1;" d="M 61.859375 135.132812 L 27.617188 135.132812 C 26.734375 135.132812 26.015625 134.417969 26.015625 133.539062 C 26.015625 132.65625 26.734375 131.9375 27.617188 131.9375 L 61.859375 131.9375 C 62.742188 131.9375 63.460938 132.65625 63.460938 133.539062 C 63.460938 134.417969 62.742188 135.132812 61.859375 135.132812 Z M 61.859375 135.132812 "/>
<path style=" stroke:none;fill-rule:nonzero;fill:rgb(90.196078%,90.196078%,90.196078%);fill-opacity:1;" d="M 50.882812 128.265625 L 38.59375 128.265625 C 37.710938 128.265625 36.992188 127.554688 36.992188 126.671875 C 36.992188 125.789062 37.710938 125.078125 38.59375 125.078125 L 50.882812 125.078125 C 51.765625 125.078125 52.480469 125.789062 52.480469 126.671875 C 52.480469 127.554688 51.765625 128.265625 50.882812 128.265625 Z M 50.882812 128.265625 "/>
<path style=" stroke:none;fill-rule:nonzero;fill:rgb(24.705882%,23.921569%,33.72549%);fill-opacity:1;" d="M 19 79.90625 L 149.421875 79.90625 L 149.421875 80.4375 L 19 80.4375 Z M 19 79.90625 "/>
</g>
</svg>
